<?xml version="1.0" encoding="utf-8"?>
<!-- Svg Vector Icons : http://www.onlinewebfonts.com/icon -->
<!DOCTYPE svg PUBLIC "-//W3C//DTD SVG 1.1//EN" "http://www.w3.org/Graphics/SVG/1.1/DTD/svg11.dtd">
<svg version="1.1" xmlns="http://www.w3.org/2000/svg" xmlns:xlink="http://www.w3.org/1999/xlink" x="0px" y="0px" viewBox="0 0 1000 1000" enable-background="new 0 0 1000 1000" xml:space="preserve">
<metadata> Svg Vector Icons : http://www.onlinewebfonts.com/icon </metadata>
<g><g transform="translate(0.000000,511.000000) scale(0.100000,-0.100000)"><path d="M6909.5,4730.5c-7.7-5.7-13.4-42.1-13.4-80.4c0-201,348.4-557.1,710.3-729.4c63.2-28.7,132.1-49.8,151.2-44c30.6,7.7,19.1,23-65.1,72.7c-145.5,86.1-323.5,225.9-482.4,377.1c-101.5,95.7-151.3,164.6-204.9,273.8C6932.5,4749.6,6930.6,4751.5,6909.5,4730.5z"/><path d="M6151.4,4598.4c42.1-51.7,130.2-86.2,396.3-153.2c141.7-36.4,291-82.3,327.4-105.3l68.9-40.2l-57.4,61.3c-82.3,86.1-296.7,181.9-511.2,227.8C6143.7,4638.6,6116.9,4640.5,6151.4,4598.4z"/><path d="M5554.1,4475.8c-162.7-23-591.6-134-802.1-208.7l-162.7-55.5l172.3-1.9c95.7,0,241.2,11.5,325.5,28.7c84.2,15.3,250.8,32.5,369.5,40.2c185.7,9.6,214.4,15.3,214.4,44c0,19.1,24.9,44,61.3,59.4c78.5,32.5,405.9-1.9,626-67c88.1-24.9,147.4-34.5,135.9-21.1c-30.6,36.4-216.3,124.4-327.4,155.1C6034.6,4483.5,5718.7,4498.8,5554.1,4475.8z"/><path d="M4972.1,4085.3c-712.2-292.9-1476-909.3-1788.1-1443.5c-97.6-166.6-132.1-264.2-103.4-292.9c30.6-30.6,67-3.8,166.5,130.2c57.4,74.7,185.7,195.3,342.7,321.6c229.7,185.7,396.3,350.3,396.3,394.4c0,28.7-95.7-28.7-229.7-135.9c-124.4-101.5-243.1-164.6-264.2-143.6c-15.3,15.3,220.2,252.7,398.2,400.1c262.3,220.2,737.1,530.3,1062.5,696.8C5192.3,4133.2,5203.8,4181,4972.1,4085.3z"/><path d="M7847.6,3792.4c-32.5-30.6-7.7-80.4,59.3-126.3c176.1-114.9,321.6-172.3,614.5-237.4c635.6-139.7,817.4-210.6,972.5-375.2c109.1-114.9,179.9-241.2,222.1-396.3c38.3-135.9,55.5-319.7,36.4-392.5l-13.4-59.3l-181.9,32.5c-99.6,17.2-254.6,57.4-344.6,90c-231.6,80.4-411.6,109.1-708.3,107.2c-277.6,0-434.6-21.1-737.1-97.6c-302.5-74.7-737.1-247-737.1-291c0-38.3,55.5-30.6,227.8,30.6c382.9,137.8,840.4,239.3,1179.3,264.2c183.8,13.4,507.3-13.4,645.2-55.5c82.3-23,80.4-23-132.1-36.4c-541.8-34.5-1208-212.5-1506.7-403.9c-97.6-63.2-164.6-126.4-134-126.4c9.6,0,134,40.2,275.7,88.1c331.2,111,781.1,227.8,1089.3,279.5c287.2,47.9,754.3,57.4,926.6,19.1l109.1-24.9l-3.8-99.6c-3.8-55.5,1.9-103.4,13.4-109.1c30.6-15.3,120.6,168.5,153.1,310.1c38.3,172.3,36.4,323.5-9.6,501.6c-126.3,497.7-448,717.9-1255.8,853.8c-359.9,61.3-486.3,105.3-620.3,210.6C7916.5,3803.9,7872.5,3819.2,7847.6,3792.4z"/><path d="M7713.6,3717.7c-7.7-7.7-13.4-36.4-13.4-65.1c0-111-160.8-227.8-310.1-229.7c-93.8,0-111-34.5-45.9-88.1c114.9-99.6,346.5-107.2,409.7-11.5c46,68.9,47.9,392.5,3.8,402C7740.4,3727.3,7721.2,3725.4,7713.6,3717.7z"/><path d="M2154.1,3597.1c-99.5-70.8-231.6-224-359.9-415.4c-86.1-128.3-116.8-158.9-168.5-168.5c-32.5-7.7-202.9-80.4-377.1-164.7c-287.2-139.7-333.1-155.1-488.2-174.2c-402-47.9-560.9-105.3-624.1-227.8c-55.5-103.4-47.9-183.8,26.8-258.4c70.8-70.8,143.6-90,507.3-135.9c643.2-76.6,819.4-111,915.1-174.2c24.9-15.3,70.8-80.4,103.4-145.5c112.9-227.8,65.1-448-220.2-999.3c-202.9-396.3-285.2-610.7-315.9-832.8c-26.8-197.2-13.4-331.2,68.9-712.2c67-310.1,76.6-421.2,45.9-570.5c-9.6-47.9-26.8-254.6-38.3-459.5c-53.6-972.5-130.2-1424.3-308.2-1788.1c-72.7-149.3-118.7-195.3-294.8-294.8c-162.7-91.9-197.2-135.9-204.8-269.9l-5.7-105.3l153.2-30.6c93.8-19.1,271.9-32.5,461.4-34.5l306.3-3.8l111,151.3c264.2,369.5,515,1114.2,597.3,1782.3c28.7,225.9,42.1,277.6,105.3,405.9l72.7,145.5l111-26.8c160.8-40.2,373.3-55.5,448-28.7c70.8,24.9,82.3,19.1,67-32.6c-13.4-38.3-68.9-67-166.6-88c-84.2-19.2-239.3-174.2-302.5-304.4c-80.4-164.6-105.3-336.9-90-610.7c24.9-455.6,180-746.6,472.9-884.5l126.4-59.3l-248.9-3.8c-513.1-7.7-784.9-126.3-786.8-344.6c-1.9-82.3,1.9-90,55.5-107.2c34.5-11.5,633.7-21.1,1483.7-24.9l1426.2-7.7l143.6-49.8c191.5-67,457.5-82.3,706.4-38.3c323.5,57.4,650.9,248.9,813.7,478.6c111,155.1,124.4,193.3,252.7,719.8c97.6,396.3,111,472.9,111,650.9c1.9,189.6-3.8,214.4-88.1,459.5c-145.5,426.9-160.8,633.7-63.2,894l45.9,120.6h-53.6c-36.4,0-76.6-23-126.3-70.8c-49.8-49.8-68.9-59.3-59.3-34.5c61.3,166.6,78.5,283.3,76.6,555.2c0,158.9-9.6,377.1-23,488.2c-34.5,292.9-120.6,943.8-128.3,970.6c-9.6,32.5-541.8-499.7-647.1-649c-176.1-246.9-300.6-578.1-331.2-878.7L5435.4-919l-99.6,101.5c-103.4,103.4-220.2,189.5-329.3,245c-42.1,23-5.7-23,116.8-145.5c97.6-95.7,208.7-224,247-281.4c61.3-97.6,67-118.7,76.6-298.6c13.4-245,86.2-595.4,185.7-917c111-352.2,174.2-626,185.7-809.8c11.5-153.1,9.6-162.7-59.4-298.7c-120.6-245.1-331.2-396.3-568.6-409.7c-359.9-21.1-528.4,285.2-704.5,1278.8c-30.6,183.8-74.7,386.7-97.6,448c-21.1,63.2-38.3,157-40.2,210.6c0,84.2-3.8,91.9-21.1,53.6c-19.1-38.3-28.7-28.7-105.3,132.1c-82.3,174.2-82.3,176.1-82.3,388.6c0,134-11.5,250.8-28.7,310.1c-28.7,101.5-137.8,287.2-157,269.9c-5.7-7.7-1.9-49.8,9.6-93.8c11.5-45.9,26.8-157,32.5-245l9.6-162.7l-158.9,315.9C3647.3-428.9,3475-49.8,3341,290.9c-105.3,264.2-105.3,266.1-91.9,415.4c11.5,124.4,9.6,151.2-13.4,151.2c-15.3,0-36.4-23-45.9-51.7c-17.2-47.9-24.9-28.7-74.7,172.3l-55.5,227.8l72.7,145.5c59.4,120.6,225.9,386.7,306.3,492c24.9,34.5,0,86.2-44,86.2c-40.2,0-176.1-158.9-304.4-359.9l-76.6-120.6l-23,111c-11.5,61.3-24.9,128.3-28.7,151.2c-13.4,59.3,245,423.1,551.3,779.2c63.2,72.8,109.1,135.9,103.4,141.7c-32.5,30.6-382.9-319.7-566.7-568.6c-67-90-120.6-145.5-126.4-130.2c-3.8,13.4-28.7,162.7-55.5,333.1l-45.9,308.2l55.5,113c114.9,237.4,172.3,662.4,114.9,836.6c-23,67-30.6,72.8-76.6,63.2c-97.6-23-398.2-181.9-484.4-258.5l-88.1-78.5l19.1,76.6c23,90,9.6,180-42.1,264.2C2274.7,3666,2251.7,3668,2154.1,3597.1z M2167.5,3394.2c-30.6-128.3-24.9-149.3,30.6-137.8c38.3,7.7,45.9,1.9,34.5-23c-5.7-17.2-17.2-49.8-21.1-72.8c-5.7-26.8-28.7-45.9-61.3-51.7c-210.6-42.1-291-53.6-300.6-44c-21.1,21.1,57.4,135.9,187.6,273.8c74.7,78.5,137.8,139.7,141.7,135.9C2182.8,3472.7,2177.1,3436.3,2167.5,3394.2z M2893,3363.6c53.6-155.1,13.4-407.8-103.4-641.3l-67-135.9l47.9-325.4c26.8-179.9,74.7-467.1,105.3-639.4c193.4-1030,275.7-1257.8,928.5-2565.3c518.8-1035.7,490.1-959.1,650.9-1740.2c149.3-731.3,193.4-861.5,336.9-984c168.5-143.6,463.3-179.9,672-84.2c91.9,42.1,126.3,74.6,220.2,201c145.5,195.3,201,325.4,212.5,493.9c11.5,170.4-17.2,321.6-199.1,1045.3c-134,532.2-147.4,603-155.1,825.1c-5.7,143.6-1.9,294.8,11.5,373.3c23,132.1,126.4,463.3,153.1,490.1c7.7,7.7,40.2-24.9,68.9-72.8c65.1-101.5,143.6-164.6,143.6-112.9c0,17.2-13.4,84.2-30.6,149.3c-38.3,145.5-28.7,283.3,28.7,398.2c38.3,82.3,361.8,448,379.1,430.7c3.8-3.8-36.4-162.7-88.1-350.3c-51.7-187.6-90-344.6-88-348.4c1.9-3.8,55.5,17.2,114.9,44c61.3,26.8,113,46,116.8,44c1.9-3.8-21.1-95.7-51.7-204.8c-70.8-258.4-72.8-256.5,11.5-220.2c36.4,13.4,74.7,26.8,86.1,26.8c28.7,0,23-237.4-9.6-426.9c-38.3-218.3-113-449.9-202.9-629.9c-42.1-82.3-74.7-157-74.7-168.5c0-34.5,107.2-21.1,143.6,19.1c34.5,38.3,170.4,55.5,187.6,24.9c3.8-9.6-7.7-160.8-24.9-340.8c-32.6-315.9-32.6-327.4,3.8-363.7c34.5-38.3,36.4-38.3,86.2,26.8c45.9,59.3,51.7,61.3,65.1,28.7c7.7-19.2,15.3-97.6,15.3-172.3c1.9-206.8-65.1-381-220.2-566.7c-103.4-122.5-59.4-137.9,120.6-44c82.3,42.1,155.1,80.4,162.7,82.3c65.1,26.8-151.3-476.7-292.9-689.2c-42.1-59.3-74.7-114.9-74.7-120.6c0-5.7,47.9,21.1,107.2,57.4c59.4,38.3,111.1,65.1,114.9,61.3c21.1-19.1-193.3-306.3-306.3-411.6c-149.3-139.7-287.2-206.8-516.9-254.6c-296.7-61.3-495.8-36.4-698.8,84.2c-204.8,122.5-407.8,423.1-490.1,727.5c-19.1,72.7-44,126.4-55.5,122.5c-13.4-3.8-23-78.5-26.8-185.7c-7.7-235.5,24.9-331.2,162.7-480.5c59.3-63.2,103.4-116.8,99.5-120.6c-3.8-3.8-300.6-17.2-658.6-30.6c-608.8-21-1673.2-7.7-1701.9,21.1c-5.7,5.8,0,38.3,13.4,72.8c19.1,51.7,17.2,63.2-5.7,78.5c-61.3,38.3-97.6,21.1-135.9-67l-38.3-86.1H2043c-57.4,0-105.3,7.7-105.3,17.2c0,40.2,95.7,149.3,164.6,187.6c135.9,76.6,325.4,91.9,750.4,67c802.1-49.8,913.2-51.7,1005.1-15.3c107.2,40.2,168.5,101.5,128.3,126.3c-15.3,9.6-118.7,15.3-229.7,13.4c-231.7-3.8-308.2,24.9-354.2,135.9c-26.8,61.3-80.4,82.3-93.8,36.4c-3.8-11.5-15.3-53.6-24.9-90l-17.2-67l-120.6,201c-67,111-130.2,206.8-143.6,214.4c-28.7,19.1-68.9-63.2-86.2-174.2l-15.3-88l-51.7,111c-30.6,61.3-70.8,199.1-91.9,306.3c-21,107.2-45.9,202.9-53.6,210.6c-15.3,17.2-139.8-141.7-191.4-248.9l-32.5-68.9l-34.5,179.9c-38.3,210.6-44,518.8-11.5,668.1c51.7,245,206.8,405.9,415.4,432.7c361.8,44,754.3-204.8,955.3-608.8c103.4-206.7,101.5-204.8,124.4-168.5c44,68.9,0,359.9-78.5,526.5c-65.1,139.7-214.4,312.1-455.6,528.4c-139.8,126.3-225.9,218.2-245.1,264.2c-32.5,80.4-78.5,135.9-111,135.9c-15.3,0-23-49.8-21.1-166.6c1.9-114.9-5.7-166.5-21.1-172.3c-17.2-5.7-24.9,15.3-24.9,67c0,59.4-7.7,78.5-38.3,86.2c-28.7,7.7-45.9-3.8-67-45.9c-53.6-99.6-135.9-118.7-271.9-55.5c-55.5,24.9-82.3,47.9-82.3,72.8c0,55.5-72.7,137.8-124.4,137.8c-36.4,0-67-38.3-170.4-210.6c-193.4-321.6-225.9-403.9-233.6-589.6c-7.7-197.2-72.7-469-206.8-871.1c-174.2-522.6-396.3-997.4-490.1-1047.2c-19.1-9.6-91.9-19.1-160.8-19.1c-124.4,0-124.4,0-107.2,46c9.6,28.7,9.6,51.7-5.7,67c-36.4,36.4-80.4,23-137.8-36.4c-72.7-76.6-134-70.8-134,9.6c0,53.6,5.7,57.4,118.7,80.4c400.1,80.4,618.4,381,694.9,953.4c17.2,134,49.8,610.7,90,1345.8c7.7,134,21.1,227.8,36.4,248.9c32.5,38.3,32.5,38.3,151.2-197.2c55.5-112.9,86.1-153.1,114.9-153.1c24.9,0,40.2,17.2,47.9,57.4c19.1,90,49.8,135.9,222.1,325.4c149.3,166.6,160.8,183.8,160.8,262.3c-1.9,109.1-53.6,222.1-141.7,298.6c-38.3,32.5-76.6,61.3-84.2,61.3c-7.7,0-9.6-72.7-7.7-160.8c9.6-187.6-21-352.3-74.7-421.2c-30.6-38.3-55.5-49.8-116.8-49.8c-70.8,0-90,11.5-218.2,141.7c-76.6,78.5-172.3,191.4-212.5,252.7c-67,99.5-72.7,120.6-72.7,235.5c1.9,134,47.9,245,180,442.2c32.5,45.9,53.6,88.1,49.8,91.9c-3.8,3.8-34.5-1.9-68.9-13.4c-34.5-11.5-65.1-17.2-68.9-13.4c-3.8,3.8,13.4,59.3,40.2,124.4c49.8,114.9,65.1,212.5,32.5,212.5c-7.7,0-55.5-36.4-105.3-78.5c-49.8-44-93.8-74.7-99.6-68.9c-23,21.1,32.5,208.7,95.7,335c36.4,70.8,111,193.4,162.7,271.9c84.2,122.5,116.8,191.4,91.9,191.4c-3.8,0-59.4-21.1-124.4-47.9c-65.1-26.8-122.5-47.9-128.3-47.9c-3.8,0,24.9,55.5,67,124.4c105.3,170.4,193.4,350.3,275.7,562.8c68.9,174.2,70.8,181.9,42.1,252.7c-17.2,40.2-24.9,88.1-17.2,107.2c24.9,74.7,132.1,160.8,271.8,218.3c166.6,68.9,248.9,124.4,287.2,195.3c21.1,40.2,23,55.5,1.9,80.4c-21.1,24.9-32.5,19.1-97.6-47.9c-137.8-141.7-277.6-143.6-706.4-9.6c-153.2,47.9-296.7,76.6-478.6,97.7c-784.9,86.1-855.7,97.6-920.8,162.7c-57.4,57.4-45.9,88.1,44,99.5c137.8,19.1,227.8,122.5,168.5,195.3c-23,28.7-5.7,32.5,306.3,65.1c208.7,23,306.3,55.5,566.7,193.3c166.6,90,247,118.7,373.3,141.7c275.7,49.8,490.1,74.7,532.2,63.2c30.6-7.7,47.9,1.9,68.9,44c45.9,86.1,214.4,224,377.1,306.3c84.2,42.1,164.6,76.6,178,76.6C2860.5,3422.9,2881.6,3396.1,2893,3363.6z M1487.9-1357.4l90-149.3l-11.5-181.9c-70.8-1020.4-172.3-1751.7-281.4-2006.3c-65.1-151.2-126.4-214.4-277.6-283.3c-116.8-53.6-160.8-65.1-273.8-65.1c-162.7,0-166.6,24.9-15.3,105.3c166.6,91.9,222.1,141.7,279.5,266.1c143.6,308.2,294.8,1192.7,367.6,2161.4c13.4,164.7,24.9,300.6,28.7,300.6C1396-1210,1438.1-1277,1487.9-1357.4z M643.6-4129.5c5.8-15.3,1.9-49.8-7.7-76.6c-24.9-63.2-114.9-68.9-114.9-5.7C521.1-4131.4,618.7-4066.3,643.6-4129.5z"/><path d="M2649.9,3220c-76.6-38.3-164.6-99.6-195.3-135.9c-112.9-128.3-55.5-321.6,111-369.5c67-19.1,74.7-17.2,122.5,42.1c28.7,32.6,65.1,99.6,82.3,147.4c36.4,99.6,61.3,384.8,36.4,384.8C2797.3,3288.9,2726.5,3258.3,2649.9,3220z M2734.2,3084.1c-19.1-139.7-86.1-262.3-149.3-269.9c-95.7-11.5-137.8,130.2-67,227.8c32.5,44,166.6,132.1,201,132.1C2741.8,3174,2743.7,3156.8,2734.2,3084.1z"/><path d="M1499.3,2737.6c-45.9-17.2-88.1-42.1-91.9-53.6c-3.8-11.5,49.8-49.8,118.7-84.2c109.1-55.5,135.9-61.3,222.1-51.7c57.4,7.7,116.8,28.7,139.8,49.8c28.7,24.9,57.4,32.5,103.4,26.8c103.4-17.2,74.7,40.2-51.7,97.6C1805.7,2781.6,1631.4,2787.3,1499.3,2737.6z"/><path d="M6339,3453.6c21.1-24.9,21.1-36.4,0-63.2c-44-53.6-308.2-168.5-472.9-208.7c-86.1-19.1-155.1-44-151.2-53.6c3.8-9.6,70.8-15.3,149.3-13.4c225.9,5.7,417.4-70.8,639.4-256.5c55.5-47.9,55.5-49.8,21-76.6c-44-32.5-139.7-36.4-212.5-9.6c-26.8,9.6-93.8,59.4-149.3,109.1c-99.6,93.8-95.7,82.3,24.9-67c51.7-63.2,90-88.1,170.4-113c120.6-34.5,294.8-23,384.8,23c61.3,32.5,70.8,65.1,34.5,122.5c-47.9,76.6,141.7,269.9,325.4,335c80.4,30.6,63.2,42.1-86.2,57.4c-109.1,9.6-407.8,107.2-587.7,191.4C6354.3,3465,6323.7,3472.7,6339,3453.6z M6484.5,3269.8c5.7-9.6-5.7-19.1-26.8-19.1c-23,0-40.2,9.6-40.2,19.1c0,11.5,11.5,19.2,26.8,19.2C6459.6,3288.9,6478.8,3281.3,6484.5,3269.8z M6497.9,3107c72.7-61.3,101.5-59.3,158.9,1.9l47.9,51.7v-49.8c0-113-174.2-147.4-269.9-53.6c-30.6,30.6-55.5,65.1-55.5,76.6C6379.2,3170.2,6438.6,3156.8,6497.9,3107z"/><path d="M4608.4,3438.2c-30.6-11.5-74.7-34.5-95.7-49.8c-36.4-24.9-34.5-26.8,24.9-15.3c34.5,5.7,99.6,26.8,143.6,47.9c67,30.6,72.8,36.4,32.5,36.4C4686.9,3457.4,4640.9,3449.7,4608.4,3438.2z"/><path d="M8163.5,3288.9c-34.5-21.1-72.7-61.3-84.2-88.1c-19.1-42.1-19.1-53.6,11.5-74.7c42.1-30.6,80.4-19.1,151.2,44c61.3,57.4,65.1,82.3,17.2,124.4C8228.6,3323.4,8220.9,3323.4,8163.5,3288.9z"/><path d="M4723.2,2950c-51.7-38.3-157-130.2-231.6-204.8c-195.3-195.3-281.4-346.5-239.3-413.5c15.3-23,26.8-21,68.9,19.1c26.8,26.8,68.9,76.6,90,114.9c23,36.4,126.3,155.1,229.7,262.3c103.4,107.2,187.6,202.9,187.6,214.4c0,9.6,5.7,30.6,11.5,47.9C4857.2,3036.2,4828.5,3026.6,4723.2,2950z"/><path d="M6926.7,2871.6c-5.7-9.6,13.4-34.5,44.1-57.4c28.7-21.1,68.9-70.8,86.1-109.1c59.3-124.4,7.7-191.4-298.7-379.1c-252.7-155.1-327.4-287.2-214.4-375.2l51.7-40.2l34.5,99.6c40.2,120.6,114.9,193.3,348.4,335c180,111,243.1,176.1,243.1,254.6c0,57.4-97.6,214.4-158.9,258.4C7018.7,2888.8,6942.1,2896.4,6926.7,2871.6z"/><path d="M4669.6,2578.7c-88.1-72.7-212.5-239.3-264.2-348.4c-38.3-86.1-47.9-195.3-19.1-212.5c17.2-11.5,227.8,241.2,344.6,415.4c68.9,99.6,86.1,189.5,40.2,199.1C4755.8,2636.1,4709.8,2611.2,4669.6,2578.7z"/><path d="M4681.1,2136.4c-147.4-155.1-266.1-532.2-170.4-532.2c32.6,0,279.5,486.3,279.5,547.5C4790.2,2214.9,4752,2209.2,4681.1,2136.4z"/><path d="M4763.4,1715.2c-103.4-210.6-149.3-379-141.7-516.9l5.7-101.5l61.3,128.3c82.3,174.2,153.2,403.9,170.4,547.5c5.7,65.1,7.7,118.7,1.9,118.7C4855.3,1891.4,4811.3,1811,4763.4,1715.2z"/><path d="M7746.1,1761.2c-158.9-103.4-331.2-294.8-423.1-474.8c-95.7-181.9-197.2-515-202.9-656.6c-3.8-126.4,32.5-153.2,61.3-46c95.7,350.3,130.2,455.6,191.4,589.6c93.8,199.1,216.3,359.9,373.3,484.3C7958.6,1826.3,7958.6,1899,7746.1,1761.2z"/><path d="M5064,1364.9c-30.6-57.4-101.5-294.8-101.5-344.6c0-61.3,30.6-76.6,86.2-40.2c55.5,36.4,72.7,141.7,51.7,308.2C5088.9,1386,5083.2,1397.5,5064,1364.9z"/><path d="M5423.9,1271.1c-11.5-28.7-13.4-88.1-1.9-149.3c7.6-55.5,21.1-181.9,28.7-281.4l15.3-181.9l47.9,93.8c42.1,84.2,45.9,111,38.3,266.1c-7.7,170.4-40.2,277.6-86.2,294.8C5452.6,1317,5433.5,1297.9,5423.9,1271.1z"/><path d="M6004,1100.7c15.3-23,32.5-72.7,40.2-109.1c17.2-86.1,42.1-114.9,97.6-114.9c40.2,0,45.9,9.6,45.9,65.1c0,114.9-26.8,147.4-155.1,183.8C5981,1140.9,5979.1,1140.9,6004,1100.7z"/><path d="M6258.6,1073.9c26.8-181.9,107.2-231.6,116.8-76.6c7.7,105.3-17.2,147.4-84.2,147.4C6251,1144.7,6249,1139,6258.6,1073.9z"/><path d="M6691.3,788.7c-5.7-17.2-3.8-42.1,5.7-57.4c595.4-838.5,963-1669.4,1139.1-2576.8c42.1-222.1,68.9-277.6,120.6-258.4c44,17.2,38.3,107.2-19.1,379.1C7769.1-926.7,7397.7-44.1,6988,532.1C6796.6,798.2,6720,865.2,6691.3,788.7z"/><path d="M5069.7-1280.8c-5.7-30.6-24.9-155.1-40.2-279.5c-17.2-122.5-44-271.8-59.4-331.2c-15.3-57.4-26.8-111-26.8-118.7c0-7.7-7.7,0-17.2,15.3c-11.5,13.4-24.9,91.9-30.6,172.3c-17.2,204.9-45.9,363.7-78.5,425c-28.7,53.6-105.3,135.9-116.8,122.5c-3.8-3.8,11.5-126.4,34.5-271.8c21.1-147.4,40.2-336.9,42.1-423.1c3.8-145.5,5.8-153.2,36.4-126.3c19.1,17.2,38.3,47.9,45.9,68.9c11.5,38.3,15.3,38.3,57.4-15.3l45.9-57.4l63.2,67c134,139.7,210.6,626,118.7,750.5C5096.6-1215.7,5083.2-1215.7,5069.7-1280.8z"/><path d="M7227.3-1300c5.7-40.2,40.2-158.9,76.6-264.2c80.4-224,109.1-379.1,109.1-597.3c0-126.3,5.7-158.9,28.7-158.9c40.2,0,53.6,109.1,42.1,340.8c-11.5,229.7-63.2,448-149.3,631.8C7267.5-1210,7212-1183.2,7227.3-1300z"/><path d="M6844.4-1577.6c-44-21.1-42.1-23,44-114.9c137.8-147.4,208.7-340.8,227.8-618.3c15.3-202.9,24.9-239.3,57.4-239.3c46,0,67,67,67,214.4c-1.9,310.1-67,572.4-172.3,687.3C6995.7-1566.1,6915.3-1541.2,6844.4-1577.6z"/></g></g>
</svg>